<svg xmlns="http://www.w3.org/2000/svg" viewBox="0 0 48.73 74"><defs><style>.cls-1{fill:#bd0d38;}</style></defs><title>dna-left_1</title><g id="Слой_2" data-name="Слой 2"><g id="Слой_4" data-name="Слой 4"><path class="cls-1" d="M48.37,74a22,22,0,0,0-.84-5.62c-.22-.91-.55-1.8-.84-2.69S46,64,45.62,63.1a45.21,45.21,0,0,0-5.91-9.43,78.35,78.35,0,0,0-16.49-15l-4.66-3.56c-1.48-1.28-3-2.56-4.42-3.89a58.47,58.47,0,0,1-7.62-9A39.92,39.92,0,0,1,1.28,11.59,31.43,31.43,0,0,1,.12,5.81,18.2,18.2,0,0,1,.37,0a22,22,0,0,0,.85,5.62c.22.91.55,1.8.84,2.69S2.77,10,3.12,10.9A45.21,45.21,0,0,0,9,20.33a78.49,78.49,0,0,0,16.49,15l4.66,3.56c1.48,1.29,3,2.55,4.42,3.89a58.37,58.37,0,0,1,7.62,9,39.92,39.92,0,0,1,5.23,10.58,31.35,31.35,0,0,1,1.16,5.78A18.21,18.21,0,0,1,48.37,74Z"/></g></g></svg>