<svg xmlns="http://www.w3.org/2000/svg" viewBox="0 0 48.73 74"><defs><style>.cls-1{fill:#bd0d38;}</style></defs><title>dna-right</title><g id="Слой_2" data-name="Слой 2"><g id="Слой_4" data-name="Слой 4"><path class="cls-1" d="M.36,74a18.21,18.21,0,0,1-.24-5.81,31.35,31.35,0,0,1,1.16-5.78A39.92,39.92,0,0,1,6.51,51.83a58.37,58.37,0,0,1,7.62-9c1.43-1.34,2.93-2.61,4.42-3.89l4.66-3.56a78.49,78.49,0,0,0,16.49-15,45.21,45.21,0,0,0,5.91-9.43c.35-.86.76-1.71,1.06-2.59s.62-1.77.84-2.69A22,22,0,0,0,48.36,0a18.2,18.2,0,0,1,.25,5.81,31.43,31.43,0,0,1-1.16,5.78,39.92,39.92,0,0,1-5.23,10.58,58.47,58.47,0,0,1-7.62,9c-1.44,1.33-2.93,2.61-4.42,3.89l-4.66,3.56A78.35,78.35,0,0,0,9,53.67,45.21,45.21,0,0,0,3.11,63.1C2.76,64,2.35,64.81,2,65.69s-.62,1.77-.84,2.69A22,22,0,0,0,.36,74Z"/></g></g></svg>