<svg xmlns="http://www.w3.org/2000/svg" viewBox="0 0 485.39 401.14"><defs><style>.cls-1{fill:#e6e6e6;}</style></defs><title>partners__elem1</title><g id="Слой_2" data-name="Слой 2"><g id="Партнеры"><path class="cls-1" d="M242.67,0q-28.15,51.15-55.38,101.31l-53.92,99.52q-26.75,49.29-53.42,97.76L53.1,347l-27,48.17-8.64-15c37.54-.29,75.08-.62,112.62-.74s75.08-.2,112.62-.28l56.31.08,28.16.05,28.16.13,56.31.3,56.31.44-8.66,15-27-48.17c-9-16.07-17.9-32.22-26.84-48.37q-26.77-48.5-53.42-97.75L298,101.33Q270.8,51.06,242.67,0Zm0,0q28.16,46.38,57.25,93.74l58.71,95.55q29.57,48.25,59.21,97.32c9.83,16.36,19.7,32.72,29.47,49.17l29.27,49.37L485.39,400l-17.47.14-56.31.44-56.31.3-28.16.13-28.16.05-56.31.08c-37.54-.08-75.08-.05-112.62-.28s-75.08-.45-112.62-.74L0,400l8.79-14.82,29.27-49.37,29.47-49.16q29.54-49,59.2-97.31l58.7-95.55Q214.48,46.5,242.67,0Z"/></g></g></svg>