<svg xmlns="http://www.w3.org/2000/svg" viewBox="0 0 335.83 335.76"><defs><style>.cls-1{fill:#e6e6e6;}</style></defs><title>products__elem1_1</title><g id="Слой_2" data-name="Слой 2"><g id="Продукты"><path class="cls-1" d="M327,327l-77.3,2.51L171.08,332q-39.63,1.14-79.71,2.1l-40.12.85c-13.39.25-26.81.53-40.23.7l-8.49.11L2.4,327l-.58-39.5L1.35,248C1,221.69.83,195.36.61,169L.17,90,0,11,0,0,11,0,90,.15l79,.43c26.33.23,52.67.39,79,.73l39.5.47,39.5.58,8.8.13L335.68,11,335,51.25l-.85,40.13q-.91,40.06-2.11,79.72l-2.47,78.65Zm0,0L322,167q-1.14-39.37-2.11-78.29l-.85-38.88L318.38,11,327,19.66l-39.5.58-39.5.47c-26.33.34-52.67.5-79,.73l-79,.43L11,22,22,11l-.15,79-.44,79c-.22,26.33-.4,52.67-.74,79l-.47,39.5L19.64,327,11,318.41c12.91.17,25.84.45,38.78.7l38.88.85q38.95.91,78.29,2.1Z"/></g></g></svg>