<svg xmlns="http://www.w3.org/2000/svg" viewBox="0 0 41 61"><defs><style>.cls-1{fill:#3c3c4f;}</style></defs><title>science-number-fifteen</title><g id="Слой_2" data-name="Слой 2"><g id="Слой_6" data-name="Слой 6"><path class="cls-1" d="M1,0c.41,5.08.63,10.17.78,15.25S2,25.42,2,30.5s-.06,10.17-.22,15.25S1.42,55.92,1,61C.58,55.92.37,50.83.22,45.75S0,35.58,0,30.5.06,20.33.22,15.25.59,5.08,1,0Z"/><path class="cls-1" d="M5.29,0c1.89,5,3.6,10,5.24,15s3.19,10.11,4.71,15.19,2.94,10.18,4.28,15.31S22.16,55.8,23.26,61c-1.9-5-3.6-10-5.24-15s-3.19-10.11-4.7-15.19S10.38,20.6,9,15.47,6.39,5.2,5.29,0Z"/><path class="cls-1" d="M41,0c-1.1,5.2-2.39,10.34-3.75,15.47S34.45,25.69,33,30.78,29.92,40.93,28.27,46,24.92,56,23,61c1.1-5.2,2.39-10.35,3.75-15.47s2.8-10.22,4.28-15.31S34.11,20.07,35.76,15,39.1,5,41,0Z"/></g></g></svg>