<svg xmlns="http://www.w3.org/2000/svg" viewBox="0 0 32 75.62"><defs><style>.cls-1{fill:#2e2ecc;}</style></defs><title>science-brain-right</title><g id="Слой_2" data-name="Слой 2"><g id="Слой_15" data-name="Слой 15"><path class="cls-1" d="M0,70.86V39.63s3.57.38,5.23,6.76c0,0,1-3.31-2.42-6.25a5.5,5.5,0,0,0,5-3.44A5.68,5.68,0,0,1,0,38.35V23.44s4.46-1.53,4.72-5.61c0,0-.64,3.06-4.72,4.46v-17S1.78-3.72,10.45,1.76c0,0,2.29,0,2.68.51,0,0-2.93,2.42-2.93,4.84,0,0-2.55-3.44-6.5.38,0,0,3.57-2.8,6.37.51a11.18,11.18,0,0,0,1.53,4.84c1.53,2.8,0,4,0,4s2-.51.38-5S13.9,2.78,13.9,2.78a3.07,3.07,0,0,1,1.66,3.06s5.86-.64,6.25,6.25c0,0,6.5-.13,5.23,8.41,0,0,2.93,1.15,3.19,3.7,0,0-11.09,6.37-12-2.17a4.86,4.86,0,0,0,3.19,5.1s-5.48,2.29-3.19,4.21c0,0-1.91-1.78,5.74-4.08a22.17,22.17,0,0,0,6.5-2,6,6,0,0,1-.76,3.57s3.82,2.55.38,7.27c0,0,1.78.89,1.91,4,0,0-7.9,1.91-12.75-.25,0,0,4.84,3.57,12.75,1.27a8.38,8.38,0,0,1-1.91,3.31s3.57,4.72-2,8.29c0,0,3.19,6.12-4.08,8.29,0,0,2.42,5-3.7,6.88,0,0-11.09-8.8-4.72-16.19a7.83,7.83,0,0,0-2.42,8.29S7.65,54,3.7,59.77c0,0,5-6.25,12.11,4.84a43.81,43.81,0,0,0,3.44,3.44s-.38,6.88-7.78,5.35C11.47,73.41,3.31,79.79,0,70.86Z"/></g></g></svg>