<svg xmlns="http://www.w3.org/2000/svg" viewBox="0 0 485.39 401.14"><defs><style>.cls-1{fill:#e6e6e6;}</style></defs><title>site-map__elem1</title><g id="Слой_2" data-name="Слой 2"><g id="Карта_сайта" data-name="Карта сайта"><path class="cls-1" d="M242.72,401.14Q270.87,350,298.1,299.83L352,200.31q26.75-49.29,53.42-97.76l26.85-48.38L459.33,6,468,21c-37.54.29-75.08.62-112.62.74s-75.08.2-112.62.28l-56.31-.08-28.16-.05-28.16-.13-56.31-.3L17.47,21,26.13,6l27,48.17c9,16.07,17.9,32.22,26.84,48.37q26.77,48.5,53.42,97.75l53.91,99.52Q214.6,350.09,242.72,401.14Zm0,0q-28.16-46.38-57.25-93.74l-58.71-95.55Q97.19,163.6,67.55,114.53c-9.83-16.36-19.7-32.72-29.47-49.17L8.81,16,0,1.13,17.47,1,73.78.56l56.31-.3L158.25.13,186.41.08,242.72,0c37.54.08,75.08.05,112.62.28S430.43.73,468,1l17.42.14L476.6,16,447.33,65.35l-29.47,49.16q-29.54,49-59.2,97.31L300,307.38Q270.91,354.64,242.72,401.14Z"/></g></g></svg>