<svg xmlns="http://www.w3.org/2000/svg" viewBox="0 0 502.5 21.99"><defs><style>.cls-1{fill:#e6e6e6;}</style></defs><title>site-map__elem2</title><g id="Слой_2" data-name="Слой 2"><g id="Карта_сайта" data-name="Карта сайта"><path class="cls-1" d="M0,11q15.7-1.78,31.41-3c10.47-.89,20.94-1.63,31.41-2.33,20.94-1.37,41.88-2.4,62.81-3.24Q188.44,0,251.25,0T376.88,2.35c20.94.84,41.88,1.87,62.81,3.24,10.47.71,20.94,1.45,31.41,2.34S492,9.8,502.5,11q-15.7,1.79-31.41,3.07c-10.47.89-20.94,1.63-31.41,2.34-20.94,1.38-41.87,2.41-62.81,3.24Q314.06,22.06,251.25,22T125.63,19.62c-20.94-.84-41.87-1.87-62.81-3.24-10.47-.7-20.94-1.44-31.41-2.33S10.47,12.18,0,11Z"/></g></g></svg>