<svg xmlns="http://www.w3.org/2000/svg" viewBox="0 0 488.5 419.38"><defs><style>.cls-1{fill:none;stroke:#e6e6e6;stroke-linecap:round;stroke-miterlimit:10;stroke-width:22px;}</style></defs><title>team__elem1</title><g id="Слой_2" data-name="Слой 2"><g id="Команда"><polyline class="cls-1" points="150.94 249.13 133.7 289.86 83.57 408.38 88.27 408.38 208.68 345.93 244.28 327.46 279.88 345.93 400.23 408.38 404.98 408.38 354.86 289.86 337.62 249.13"/><polyline class="cls-1" points="299.81 159.62 279.88 112.47 253.46 50.07 252.44 47.64 244.28 28.3 236.12 47.64 235.1 50.07 208.68 112.47 188.75 159.62"/><polygon class="cls-1" points="204.68 289.86 244.28 319.84 283.88 289.86 312.88 267.88 337.62 249.13 369.82 224.72 455.76 159.62 358.64 159.62 299.81 159.62 283.93 159.62 204.63 159.62 188.75 159.62 129.92 159.62 32.74 159.62 118.69 224.72 150.94 249.13 175.68 267.88 204.68 289.86"/></g></g></svg>