<svg xmlns="http://www.w3.org/2000/svg" viewBox="0 0 488.5 419.38"><defs><style>.cls-1{fill:#070707;}.cls-2{fill:none;stroke:#e6e6e6;stroke-linecap:round;stroke-miterlimit:10;stroke-width:22px;}</style></defs><title>team__elem1_2</title><g id="Слой_2" data-name="Слой 2"><g id="Команда"><polygon class="cls-1" points="283.88 289.86 312.88 267.88 303.59 289.86 283.88 289.86"/><polygon class="cls-1" points="354.86 289.86 303.59 289.86 312.88 267.88 337.62 249.13 354.86 289.86"/><polygon class="cls-1" points="303.59 289.86 354.86 289.86 404.98 408.38 400.23 408.38 279.88 345.93 303.59 289.86"/><polygon class="cls-1" points="175.68 267.88 204.68 289.86 184.97 289.86 175.68 267.88"/><polygon class="cls-1" points="175.68 267.88 184.97 289.86 133.7 289.86 150.94 249.13 175.68 267.88"/><polygon class="cls-1" points="204.68 289.86 244.28 319.84 283.88 289.86 303.59 289.86 279.88 345.93 244.28 327.46 208.68 345.93 184.97 289.86 204.68 289.86"/><polygon class="cls-1" points="184.97 289.86 208.68 345.93 88.27 408.38 83.57 408.38 133.7 289.86 184.97 289.86"/><polygon class="cls-1" points="204.68 289.86 283.88 289.86 244.28 319.84 204.68 289.86"/><polygon class="cls-1" points="245.36 130.4 244.28 130.94 243.2 130.4 244.28 129.59 245.36 130.4"/><polygon class="cls-1" points="204.63 159.62 181.29 177.34 188.75 159.62 204.63 159.62"/><polygon class="cls-1" points="358.64 159.62 455.76 159.62 369.82 224.72 340.54 202.51 358.64 159.62"/><polygon class="cls-1" points="358.64 159.62 340.54 202.51 307.32 177.34 299.81 159.62 358.64 159.62"/><polygon class="cls-1" points="369.82 224.72 337.62 249.13 329.25 229.2 340.54 202.51 369.82 224.72"/><polygon class="cls-1" points="340.54 202.51 329.25 229.2 307.32 177.34 340.54 202.51"/><polygon class="cls-1" points="312.88 267.88 329.25 229.2 337.62 249.13 312.88 267.88"/><polygon class="cls-1" points="307.32 177.34 283.93 159.62 299.81 159.62 307.32 177.34"/><polygon class="cls-1" points="279.88 112.47 299.81 159.62 283.93 159.62 245.36 130.4 279.88 112.47"/><polygon class="cls-1" points="208.68 112.47 235.1 50.07 253.46 50.07 279.88 112.47 245.36 130.4 244.28 129.59 243.2 130.4 208.68 112.47"/><polygon class="cls-1" points="283.93 159.62 204.63 159.62 243.2 130.4 244.28 130.94 245.36 130.4 283.93 159.62"/><polygon class="cls-1" points="243.2 130.4 204.63 159.62 188.75 159.62 208.68 112.47 243.2 130.4"/><polygon class="cls-1" points="188.75 159.62 181.29 177.34 148.02 202.51 129.92 159.62 188.75 159.62"/><polygon class="cls-1" points="181.29 177.34 159.31 229.2 148.02 202.51 181.29 177.34"/><polygon class="cls-1" points="159.31 229.25 175.68 267.88 150.94 249.13 159.31 229.25"/><polygon class="cls-1" points="204.63 159.62 283.93 159.62 307.32 177.34 329.25 229.2 312.88 267.88 283.88 289.86 204.68 289.86 175.68 267.88 159.31 229.25 159.31 229.2 181.29 177.34 204.63 159.62"/><polygon class="cls-1" points="159.31 229.25 150.94 249.13 118.69 224.72 148.02 202.51 159.31 229.2 159.31 229.25"/><polygon class="cls-1" points="129.92 159.62 148.02 202.51 118.69 224.72 32.74 159.62 129.92 159.62"/><polyline class="cls-2" points="150.94 249.13 133.7 289.86 83.57 408.38 88.27 408.38 208.68 345.93 244.28 327.46 279.88 345.93 400.23 408.38 404.98 408.38 354.86 289.86 337.62 249.13"/><polyline class="cls-2" points="299.81 159.62 279.88 112.47 253.46 50.07 252.44 47.64 244.28 28.3 236.12 47.64 235.1 50.07 208.68 112.47 188.75 159.62"/><polygon class="cls-2" points="204.68 289.86 244.28 319.84 283.88 289.86 312.88 267.88 337.62 249.13 369.82 224.72 455.76 159.62 358.64 159.62 299.81 159.62 283.93 159.62 204.63 159.62 188.75 159.62 129.92 159.62 32.74 159.62 118.69 224.72 150.94 249.13 175.68 267.88 204.68 289.86"/></g></g></svg>