<svg xmlns="http://www.w3.org/2000/svg" viewBox="0 0 15.97 81.05"><defs><style>.cls-1{fill:#e25033;}</style></defs><title>wrapper-team__workflow-scroll-left</title><g id="Слой_2" data-name="Слой 2"><g id="Слой_11" data-name="Слой 11"><path class="cls-1" d="M15,68.05l-14,.4H.61v-.41c-.24-9.33-.36-18.67-.46-28S0,21.38,0,12.05V11H1l14,0h1v1c0,9.45-.16,18.89-.33,28.26Zm0,0-.63-28.26c-.17-9.3-.28-18.52-.33-27.74l1,1L1,13l1-1c0,9.33,0,18.67-.14,28s-.22,18.67-.46,28l-.4-.4Z"/><path class="cls-1" d="M12,13.05c-.26-1.42-.43-2.83-.56-4.25-.07-.71-.14-1.42-.18-2.12s-.11-1.42-.13-2.12l.07.35a9.4,9.4,0,0,0-1.38-2A2.34,2.34,0,0,0,8.24,2a2.22,2.22,0,0,0-1.55.91,11.86,11.86,0,0,0-1.41,2l.09-.39c0,.71-.08,1.42-.13,2.12S5.13,8.09,5.07,8.8c-.14,1.42-.3,2.83-.56,4.25-.26-1.42-.43-2.83-.56-4.25-.07-.71-.14-1.42-.18-2.12s-.11-1.42-.13-2.12V4.37l.1-.21a11.25,11.25,0,0,1,1.5-2.52A5.64,5.64,0,0,1,6.45.55,3.38,3.38,0,0,1,8.26,0,3.41,3.41,0,0,1,10,.56a5.71,5.71,0,0,1,1.22,1.08A9.71,9.71,0,0,1,12.79,4.2l.08.18v.17c0,.71-.09,1.42-.13,2.12s-.11,1.42-.18,2.12C12.43,10.22,12.26,11.63,12,13.05Z"/><path class="cls-1" d="M4.5,68c.26,1.42.43,2.83.56,4.25.07.71.14,1.42.18,2.12s.11,1.42.13,2.12l-.07-.35a9.4,9.4,0,0,0,1.38,2A2.34,2.34,0,0,0,8.27,79a2.22,2.22,0,0,0,1.55-.91,11.86,11.86,0,0,0,1.41-2l-.09.39c0-.71.08-1.42.13-2.12s.11-1.42.18-2.12c.14-1.42.3-2.83.56-4.25.26,1.42.43,2.83.56,4.25.07.71.14,1.42.18,2.12s.11,1.42.13,2.12v.18l-.1.21a11.25,11.25,0,0,1-1.5,2.52A5.64,5.64,0,0,1,10,80.5a3.38,3.38,0,0,1-1.8.55,3.41,3.41,0,0,1-1.78-.56,5.71,5.71,0,0,1-1.22-1.08,9.71,9.71,0,0,1-1.54-2.56l-.08-.18v-.17c0-.71.09-1.42.13-2.12s.11-1.42.18-2.12C4.07,70.83,4.24,69.41,4.5,68Z"/></g></g></svg>