<svg xmlns="http://www.w3.org/2000/svg" viewBox="0 0 79.35 61"><defs><style>.cls-1{fill:#3c3c4f;}.cls-2{fill:#4f4b4a;}</style></defs><title>wrapper-team__education-number-twentytwo</title><g id="Слой_2" data-name="Слой 2"><g id="Слой_10" data-name="Слой 10"><path class="cls-1" d="M30.73,0q-3.32,7.89-7,15.6c-2.42,5.16-4.94,10.26-7.49,15.35S11.08,41.09,8.38,46.1,2.91,56.09,0,61q3.32-7.89,7-15.6c2.42-5.15,4.94-10.26,7.49-15.35s5.18-10.14,7.88-15.15S27.83,4.91,30.73,0Z"/><path class="cls-1" d="M0,0Q4.36,7.36,8.38,14.9c2.7,5,5.3,10.08,7.88,15.15s5.07,10.19,7.49,15.35,4.77,10.34,7,15.6q-4.36-7.36-8.38-14.9c-2.7-5-5.3-10.08-7.88-15.15S9.41,20.75,7,15.6,2.22,5.26,0,0Z"/><path class="cls-1" d="M62.73,0q-3.32,7.89-7,15.6c-2.42,5.16-4.94,10.26-7.49,15.35S43.08,41.09,40.38,46.1,34.91,56.09,32,61q3.32-7.89,7-15.6c2.42-5.15,4.94-10.26,7.49-15.35s5.18-10.14,7.88-15.15S59.83,4.91,62.73,0Z"/><path class="cls-1" d="M32,0q4.36,7.36,8.38,14.9c2.7,5,5.3,10.08,7.88,15.15s5.07,10.19,7.49,15.35,4.77,10.34,7,15.6q-4.36-7.36-8.38-14.9c-2.7-5-5.3-10.08-7.88-15.15S41.41,20.75,39,15.6,34.22,5.26,32,0Z"/><path class="cls-2" d="M70.36,0c.41,5.08.63,10.17.78,15.25s.2,10.17.22,15.25-.06,10.17-.22,15.25S70.77,55.92,70.36,61c-.42-5.08-.63-10.17-.78-15.25s-.2-10.17-.22-15.25.06-10.17.22-15.25S69.94,5.08,70.36,0Z"/><path class="cls-2" d="M78.36,0c.41,5.08.63,10.17.78,15.25s.2,10.17.22,15.25-.06,10.17-.22,15.25S78.77,55.92,78.36,61c-.42-5.08-.63-10.17-.78-15.25s-.2-10.17-.22-15.25.06-10.17.22-15.25S77.94,5.08,78.36,0Z"/></g></g></svg>