<svg xmlns="http://www.w3.org/2000/svg" viewBox="0 0 41.73 46.22"><defs><style>.cls-1{fill:#f15a24;}</style></defs><title>wrapper-team__workflow-spiral</title><g id="Слой_2" data-name="Слой 2"><g id="Слой_11" data-name="Слой 11"><path class="cls-1" d="M.09,10.58A37.32,37.32,0,0,1,7.64,4.06,24.71,24.71,0,0,1,16.91.26,16.92,16.92,0,0,1,22,.14a17.55,17.55,0,0,1,4.9,1.42,23.67,23.67,0,0,1,7.88,6.35,35.19,35.19,0,0,1,5.35,8.6,19.08,19.08,0,0,1,1.43,10.13A18.09,18.09,0,0,1,37,35.87a30.65,30.65,0,0,1-8,6.33,34.77,34.77,0,0,1-4.62,2.2,29.65,29.65,0,0,1-5,1.37,20.35,20.35,0,0,1-10.33-.45A12.24,12.24,0,0,1,4.56,42.5a13.63,13.63,0,0,1-2.94-4.44A26.13,26.13,0,0,1,0,27.88,35.31,35.31,0,0,1,1.49,17.76,16.88,16.88,0,0,1,3.78,13a11.35,11.35,0,0,1,4-3.6A12.06,12.06,0,0,1,13,8.1a18.91,18.91,0,0,1,5.2.6,32.7,32.7,0,0,1,9.39,4.13l.06,0,0,0a18.62,18.62,0,0,1,3.68,5.15,14,14,0,0,1,1.44,6.19,7.56,7.56,0,0,1-.11,1.61,7.34,7.34,0,0,1-.3,1.58c-.16.51-.29,1-.47,1.53l-.68,1.44a7.73,7.73,0,0,1-.81,1.36l-.88,1.31c-.7.77-1.37,1.57-2.11,2.31A13.3,13.3,0,0,1,22,38.69,8.62,8.62,0,0,1,15.68,38a15.32,15.32,0,0,1-4.8-4,26.22,26.22,0,0,1-3.34-5.18l0-.08v-.08a18.83,18.83,0,0,1,.1-5.94,9.74,9.74,0,0,1,2.67-5.37,8.3,8.3,0,0,1,5.57-2.14,18.81,18.81,0,0,1,5.8.84A20.7,20.7,0,0,1,27,18.35a5.9,5.9,0,0,1,2,2.17A3.31,3.31,0,0,1,29.38,22,4.06,4.06,0,0,1,29,23.47a11.54,11.54,0,0,1-4,4.22,33,33,0,0,1-5,2.88,32.92,32.92,0,0,0,4.86-3.06,11.61,11.61,0,0,0,3.71-4.2,2.94,2.94,0,0,0-.05-2.59,5.4,5.4,0,0,0-1.92-1.9,20.12,20.12,0,0,0-5.26-2,18,18,0,0,0-5.56-.65,7.49,7.49,0,0,0-4.9,2,8.67,8.67,0,0,0-2.27,4.82,17.72,17.72,0,0,0,0,5.52l0-.16a25,25,0,0,0,3.25,4.84,14,14,0,0,0,4.42,3.58,7.1,7.1,0,0,0,5.31.47,11.75,11.75,0,0,0,4.68-3c2.77-2.67,4.8-6.2,4.78-9.94s-2-7.38-4.6-10l.11.08a31,31,0,0,0-8.83-3.82c-3.08-.75-6.39-.82-9.06.61s-4.39,4.23-5.31,7.24A35,35,0,0,0,2,27.92a24.28,24.28,0,0,0,1.41,9.42,11.74,11.74,0,0,0,2.5,3.84,10.38,10.38,0,0,0,3.85,2.41,18.59,18.59,0,0,0,9.39.43,27.93,27.93,0,0,0,4.66-1.25,33.08,33.08,0,0,0,4.39-2.07,30.25,30.25,0,0,0,7.64-5.91,16.53,16.53,0,0,0,4.28-8.38A17.69,17.69,0,0,0,38.9,17a34,34,0,0,0-5-8.37,23.37,23.37,0,0,0-7.41-6.23A16.69,16.69,0,0,0,21.87.91,16.21,16.21,0,0,0,17,.9,24.22,24.22,0,0,0,7.83,4.37,38.24,38.24,0,0,0,.09,10.58Z"/></g></g></svg>