<svg xmlns="http://www.w3.org/2000/svg" viewBox="0 0 57.5 49.5"><defs><style>.cls-1{fill:#e25033;}</style></defs><title>wrapper-team__workflow-scroll-paper</title><g id="Слой_2" data-name="Слой 2"><g id="Слой_11" data-name="Слой 11"><path class="cls-1" d="M1.5,1C6.17.59,10.83.37,15.5.22S24.83,0,29.5,0s9.33.06,14,.22,9.33.36,14,.78c-4.67.42-9.33.63-14,.78S34.17,2,29.5,2s-9.33-.06-14-.22S6.17,1.41,1.5,1Z"/><path class="cls-1" d="M0,48.5c4.67-.41,9.33-.63,14-.78s9.33-.2,14-.22,9.33.06,14,.22,9.33.36,14,.78c-4.67.42-9.33.63-14,.78s-9.33.2-14,.22-9.33-.06-14-.22S4.67,48.91,0,48.5Z"/></g></g></svg>