<svg xmlns="http://www.w3.org/2000/svg" viewBox="0 0 24.35 37.14"><defs><style>.cls-1{fill:#3c3c4f;}.cls-2{fill:#4f4b4a;}</style></defs><title>wrapper-team__workflow-number</title><g id="Слой_2" data-name="Слой 2"><g id="Слой_11" data-name="Слой 11"><path class="cls-1" d="M5.64,0C7.57,2.91,9.32,5.91,11,8.94s3.3,6.1,4.88,9.19,3.07,6.22,4.48,9.38,2.79,6.35,4,9.64c-1.93-2.91-3.69-5.91-5.38-8.93s-3.3-6.1-4.87-9.19S11,12.8,9.62,9.64,6.83,3.28,5.64,0Z"/><path class="cls-1" d="M24.35,0c-1.19,3.28-2.56,6.47-4,9.64S17.43,15.92,15.89,19,12.72,25.19,11,28.21s-3.44,6-5.38,8.93c1.19-3.28,2.55-6.48,4-9.64s2.94-6.28,4.48-9.38S17.28,12,19,8.94,22.43,2.91,24.35,0Z"/><path class="cls-2" d="M1,0c.41,3.1.63,6.19.78,9.29S2,15.48,2,18.57s-.06,6.19-.22,9.29S1.42,34,1,37.14C.58,34,.37,31,.22,27.86S0,21.67,0,18.57s.06-6.19.22-9.29S.59,3.1,1,0Z"/></g></g></svg>