<svg xmlns="http://www.w3.org/2000/svg" viewBox="0 0 69.35 61"><defs><style>.cls-1{fill:#3c3c4f;}</style></defs><title>wrapper-team__public-number-fifteen</title><g id="Слой_2" data-name="Слой 2"><g id="Слой_8" data-name="Слой 8"><path class="cls-1" d="M33.64,0c1.89,5,3.6,10,5.24,15s3.19,10.11,4.71,15.19,2.94,10.18,4.28,15.31S50.52,55.8,51.62,61c-1.9-5-3.6-10-5.24-15s-3.19-10.11-4.7-15.19S38.73,20.6,37.39,15.47,34.74,5.2,33.64,0Z"/><path class="cls-1" d="M69.35,0C68.25,5.2,67,10.34,65.61,15.47s-2.8,10.22-4.28,15.31S58.27,40.93,56.62,46,53.28,56,51.38,61c1.1-5.2,2.39-10.35,3.75-15.47s2.8-10.22,4.28-15.31S62.46,20.07,64.12,15,67.46,5,69.35,0Z"/><path class="cls-1" d="M30.73,0q-3.32,7.89-7,15.6c-2.42,5.16-4.94,10.26-7.49,15.35S11.08,41.09,8.38,46.1,2.91,56.09,0,61q3.32-7.89,7-15.6c2.42-5.15,4.94-10.26,7.49-15.35s5.18-10.14,7.88-15.15S27.83,4.91,30.73,0Z"/><path class="cls-1" d="M0,0Q4.36,7.36,8.38,14.9c2.7,5,5.3,10.08,7.88,15.15s5.07,10.19,7.49,15.35,4.77,10.34,7,15.6q-4.36-7.36-8.38-14.9c-2.7-5-5.3-10.08-7.88-15.15S9.41,20.75,7,15.6,2.22,5.26,0,0Z"/></g></g></svg>