<svg xmlns="http://www.w3.org/2000/svg" viewBox="0 0 85.86 78.82"><defs><style>.cls-1{fill:#4f4b4a;}</style></defs><title>wrapper-team__education-face_1</title><g id="Слой_2" data-name="Слой 2"><g id="Слой_10" data-name="Слой 10"><path class="cls-1" d="M64.64,43.79s-1-20.72,21.22-24.18c0,0-16.28-18.75-33.06,2.47,0,0-2,3-2.47-.49,0,0-3-26.65-39.48-20.72,0,0,17.76,4.44,20.72,22.21,0,0,1,3.45-2.47,1.48,0,0-22.7-8.39-29.11,14.8,0,0,16.28-11.84,27.14,4.44C27.14,43.79,56.25,40.33,64.64,43.79Z"/><path class="cls-1" d="M65.63,47.24c-13.82-3.95-38.49,0-38.49,0l-.06-.06a21.71,21.71,0,1,0,38.6,0Z"/></g></g></svg>