<svg xmlns="http://www.w3.org/2000/svg" viewBox="0 0 13.41 22.07"><defs><style>.cls-1{fill:#fff;}</style></defs><title>wrapper-team__education-face-left-side</title><g id="Слой_2" data-name="Слой 2"><g id="Слой_10" data-name="Слой 10"><path class="cls-1" d="M.07,9.42a22.92,22.92,0,0,0,2.16,4.33,17.38,17.38,0,0,0,3,3.52,11.17,11.17,0,0,0,.88.74l.44.37.48.32c.32.22.63.45,1,.66s.68.38,1,.58l.51.3.54.25,1.09.54c.74.34,1.51.62,2.27,1A17.79,17.79,0,0,1,10.86,22a14.16,14.16,0,0,1-2.5-.6,12.67,12.67,0,0,1-4.5-2.62,11.88,11.88,0,0,1-3-4.28A9.85,9.85,0,0,1,.07,9.42Z"/><path class="cls-1" d="M.07,1A5.28,5.28,0,0,1,1.82.22,7.24,7.24,0,0,1,3.58,0,7.11,7.11,0,0,1,5.33.21,5.22,5.22,0,0,1,7.09,1a5.22,5.22,0,0,1-1.75.79A7.11,7.11,0,0,1,3.58,2a7.24,7.24,0,0,1-1.75-.22A5.28,5.28,0,0,1,.07,1Z"/></g></g></svg>